<svg xmlns="http://www.w3.org/2000/svg" width="1024" height="266.066" viewBox="0 0 1024 266.066"><path fill="#080d0d" d="M719.7 0v99.9H0v166.166h719.7v-84.142h-32.87v-16.288h32.87l-.018-32.649h16.215v32.649h288.014L1024 0z"></path><path fill="#fff" d="M784.667 83.065h22.314c6.318 0 12.618 2.794 12.618 10.153 0 8.546-4.894 12.271-13.439 12.271h-21.493zm-16.836 36.921h35.607c17.183 0 21.729-2.922 26.532-7.6a24.377 24.377 0 007.3-17.292c0-8.308-2.684-16.434-12.965-20.342 3.506-1.826 10.28-5.131 10.28-17.183 0-8.637-5.259-21.492-25.82-21.492h-40.934zm16.836-69.388h20.086c7.943 0 12.782 2.118 12.782 9s-5.478 9.349-12.4 9.349h-20.468z"></path><path fill="#fff" d="M900.033 88.908c0 7.943-2.337 18.917-14.955 18.917s-14.955-10.956-14.955-18.917 2.337-18.936 14.955-18.936 14.955 10.956 14.955 18.936m16.836 0c0-22.441-15.083-32.722-31.791-32.722s-31.772 10.28-31.772 32.722 15.064 32.722 31.772 32.722 31.791-10.244 31.791-32.722"></path><path fill="#fff" d="M969.933 76.691c-.694-3.981-2.1-8.18-10.956-8.18s-10.061 3.4-10.061 6.081c0 9.806 38.912 2.684 38.912 25.564 0 18.114-17.529 21.4-27.225 21.4-14.133 0-29.453-4.912-29.91-21.51h16.818c0 5.259 3.287 9.13 13.567 9.13 8.4 0 10.39-4.09 10.39-6.428 0-10.39-38.565-2.575-38.565-25.82 0-9.13 5.734-20.8 25.126-20.8 12.161 0 26.66 3.031 27.938 20.561z"></path><path fill="#fff" d="M42.874 136.511h18.7c10.755 45.924 11.814 51.767 13.33 61.353h.237c1.516-8.765 2.794-17.292 11.686-61.353h18.567c9.824 46.033 10.646 50.489 12.508 61.353h.237c1.406-7.943 2.794-15.192 13.677-61.353h17.749l-23.574 83.9h-16.852c-8.637-41.14-10.171-49.3-12.965-65.444h-.237c-2.575 16.124-3.981 22.149-12.983 65.444H66.521z"></path><path fill="#fff" d="M179.619 220.416h-16.43v-62.084h16.43zm0-69.534h-16.43V135.69h16.43z"></path><path fill="#fff" d="M222.188 158.24h10.171v11.686h-10.171v33.781c0 3.652.128 5.021 6.793 5.021a32.241 32.241 0 003.378-.237v12.453c-2.575.11-5.131.219-7.706.219h-2.1c-14.151 0-16.726-5.368-16.726-13.439v-37.8h-8.4V158.24h8.4v-16.817h16.434z"></path><path fill="#fff" d="M270.795 158.24h10.171v11.686h-10.171v33.781c0 3.652.128 5.021 6.793 5.021a32.243 32.243 0 003.378-.237v12.453c-2.575.11-5.131.219-7.706.219h-2.1c-14.152 0-16.726-5.368-16.726-13.439v-37.8h-8.4V158.24h8.4v-16.817h16.434z"></path><path fill="#fff" d="M309.657 183.129c.931-8.18 5.021-13.092 12.782-13.092 5.259 0 11.686 3.049 12.618 13.092zm24.651 19.063c-1.278 4.437-5.953 6.774-10.518 6.774-13.2 0-14.133-10.518-14.608-15.192h42.655v-2.922c0-28.412-16.945-34.237-29.216-34.237-27.226 0-29.8 23.957-29.8 31.425 0 25.564 13.439 34.018 31.042 34.018 10.627 0 23.026-4.912 27.39-19.867z"></path><path fill="#fff" d="M399.455 220.416h-17.182l-22.314-62.175h18.242l12.855 45.814h.219l13.22-45.814h17.4z"></path><path fill="#fff" d="M446.821 183.129c.931-8.18 5.021-13.092 12.782-13.092 5.259 0 11.686 3.049 12.636 13.092zm24.651 19.063c-1.278 4.437-5.953 6.774-10.518 6.774-13.2 0-14.133-10.518-14.608-15.192h42.659v-2.922c0-28.412-16.945-34.237-29.216-34.237-27.226 0-29.8 23.957-29.8 31.425 0 25.564 13.439 34.018 31.042 34.018 10.645 0 23.026-4.912 27.39-19.867z"></path><path fill="#fff" d="M522.235 183.129c.931-8.18 5.022-13.092 12.782-13.092 5.259 0 11.686 3.049 12.636 13.092zm24.651 19.063c-1.278 4.437-5.953 6.774-10.518 6.774-13.2 0-14.133-10.518-14.608-15.192h42.659v-2.922c0-28.412-16.945-34.237-29.216-34.237-27.226 0-29.8 23.957-29.8 31.425 0 25.564 13.439 34.018 31.042 34.018 10.627 0 23.026-4.912 27.39-19.867z"></path><path fill="#fff" d="M638.112 220.416h-16.434V182.6c0-4.565-.237-12.271-10.646-12.271-7.3 0-12.782 4.912-12.782 14.371v35.643h-16.433v-62.084h15.67v9.13h.237a20.086 20.086 0 0118.7-10.737c12.143 0 21.62 7.121 21.62 20.8z"></path><path fill="#009fdc" d="M612.475 56.496V77.97H591.02V99.9h128.678V56.496z"></path><rect fill="#fff" width="16.197" height="32.649" transform="translate(719.698 132.987)"></rect><rect fill="#fff" width="32.868" height="16.288" transform="translate(686.83 165.636)"></rect></svg>